<svg id="visual" viewBox="0 0 960 540" width="960" height="540" xmlns="http://www.w3.org/2000/svg" xmlns:xlink="http://www.w3.org/1999/xlink" version="1.1"><path d="M0 12L960 17L960 0L0 0Z" fill="#fafaf6"></path><path d="M0 66L960 44L960 15L0 10Z" fill="#eef2db"></path><path d="M0 93L960 60L960 42L0 64Z" fill="#deeac2"></path><path d="M0 109L960 87L960 58L0 91Z" fill="#c9e4ab"></path><path d="M0 131L960 104L960 85L0 107Z" fill="#b0dd97"></path><path d="M0 260L960 152L960 102L0 129Z" fill="#a4db90"></path><path d="M0 347L960 309L960 150L0 258Z" fill="#a4db90"></path><path d="M0 390L960 482L960 307L0 345Z" fill="#b0dd97"></path><path d="M0 417L960 482L960 480L0 388Z" fill="#c9e4ab"></path><path d="M0 433L960 487L960 480L0 415Z" fill="#deeac2"></path><path d="M0 498L960 498L960 485L0 431Z" fill="#eef2db"></path><path d="M0 541L960 541L960 496L0 496Z" fill="#fafaf6"></path></svg>