<svg width="666" height="140" viewBox="0 0 666 140" fill="none" xmlns="http://www.w3.org/2000/svg">
<path d="M125.755 45.647C125.916 44.429 126 43.211 126 42C126 25.347 110.999 11.984 94.353 14.245C89.502 5.614 80.262 0 70 0C59.738 0 50.498 5.614 45.647 14.245C28.966 11.984 14 25.347 14 42C14 43.211 14.084 44.429 14.245 45.647C5.614 50.505 0 59.745 0 70C0 80.255 5.614 89.495 14.245 94.353C14.0835 95.562 14.0017 96.7803 14 98C14 114.653 28.966 127.981 45.647 125.755C50.498 134.386 59.738 140 70 140C80.262 140 89.502 134.386 94.353 125.755C110.999 127.981 126 114.653 126 98C126 96.789 125.916 95.571 125.755 94.353C134.386 89.495 140 80.255 140 70C140 59.745 134.386 50.505 125.755 45.647Z" fill="white"/>
<path d="M101.487 41.0817L101.085 36.8545L97.0635 38.1964C90.1714 40.5937 82.8116 41.3293 75.5821 40.3436C67.9854 39.1634 60.2097 40.2121 53.1959 43.363C49.4776 44.948 46.2144 47.4389 43.7034 50.6089C41.1924 53.7789 39.5134 57.5274 38.8191 61.5129C37.9189 66.6617 38.3692 71.9561 40.1261 76.8783C41.2573 74.3222 42.5792 71.855 44.0805 69.4976C47.4861 64.4815 52.2049 60.5004 57.72 57.9903C63.0332 55.5618 68.8407 54.4128 74.6773 54.6354C69.121 55.4859 63.8025 57.4853 59.0605 60.5065C56.7732 61.9452 54.6786 63.6701 52.8273 65.6395C51.0567 67.6079 49.4955 69.7554 48.169 72.0473C45.6775 76.8381 43.9046 81.9703 42.9076 87.2785C41.8329 92.6038 41.2496 98.0168 41.165 103.449H47.8674C48.1824 98.5772 48.8432 93.734 49.8447 88.956C54.4943 91.4694 59.7085 92.7513 64.9922 92.6799C69.9201 92.6765 74.7973 91.684 79.3355 89.7611C104.838 78.8577 101.487 42.5914 101.487 41.0817Z" fill="#328E6E"/>
<path d="M216.088 124.38C207.44 124.38 199.39 123.184 191.938 120.792C184.486 118.4 177.954 114.996 172.342 110.58C166.73 106.164 162.36 100.874 159.232 94.71C156.104 88.546 154.54 81.692 154.54 74.148C154.54 66.696 156.104 59.888 159.232 53.724C162.452 47.56 166.822 42.27 172.342 37.854C177.862 33.438 184.302 30.034 191.662 27.642C199.114 25.158 207.118 23.916 215.674 23.916C221.838 23.916 227.726 24.56 233.338 25.848C238.95 27.136 244.194 28.884 249.07 31.092C253.946 33.208 258.132 35.646 261.628 38.406L246.31 59.658C244.102 57.818 241.48 56.07 238.444 54.414C235.408 52.666 231.912 51.286 227.956 50.274C224 49.17 219.4 48.618 214.156 48.618C210.292 48.618 206.52 49.17 202.84 50.274C199.16 51.286 195.756 52.896 192.628 55.104C189.592 57.22 187.154 59.888 185.314 63.108C183.566 66.328 182.692 70.1 182.692 74.424C182.692 78.748 183.658 82.52 185.59 85.74C187.522 88.96 190.144 91.628 193.456 93.744C196.86 95.86 200.632 97.47 204.772 98.574C208.912 99.586 213.19 100.092 217.606 100.092C222.85 100.092 227.45 99.402 231.406 98.022C235.362 96.55 238.812 94.848 241.756 92.916C244.7 90.984 247.322 89.236 249.622 87.672L262.318 108.51C259.558 110.718 255.786 113.064 251.002 115.548C246.31 118.032 240.974 120.148 234.994 121.896C229.014 123.552 222.712 124.38 216.088 124.38ZM390.394 123V26.4H416.2L482.44 90.708L478.162 89.328C477.61 85.464 477.15 81.922 476.782 78.702C476.506 75.482 476.276 72.492 476.092 69.732C475.908 66.972 475.77 64.35 475.678 61.866C475.586 59.382 475.494 56.898 475.402 54.414C475.402 51.93 475.402 49.354 475.402 46.686V26.4H501.76V123H475.678L405.85 54L413.992 56.346C414.268 57.542 414.544 58.922 414.82 60.486C415.096 61.958 415.326 63.706 415.51 65.73C415.786 67.662 416.016 69.962 416.2 72.63C416.384 75.298 416.522 78.426 416.614 82.014C416.706 85.602 416.752 89.696 416.752 94.296V123H390.394ZM603 124.38C594.352 124.38 586.302 123.184 578.85 120.792C571.398 118.4 564.866 114.996 559.254 110.58C553.642 106.164 549.272 100.874 546.144 94.71C543.016 88.546 541.452 81.692 541.452 74.148C541.452 66.696 543.016 59.888 546.144 53.724C549.364 47.56 553.734 42.27 559.254 37.854C564.774 33.438 571.214 30.034 578.574 27.642C586.026 25.158 594.03 23.916 602.586 23.916C608.75 23.916 614.638 24.56 620.25 25.848C625.862 27.136 631.106 28.884 635.982 31.092C640.858 33.208 645.044 35.646 648.54 38.406L633.222 59.658C631.014 57.818 628.392 56.07 625.356 54.414C622.32 52.666 618.824 51.286 614.868 50.274C610.912 49.17 606.312 48.618 601.068 48.618C597.204 48.618 593.432 49.17 589.752 50.274C586.072 51.286 582.668 52.896 579.54 55.104C576.504 57.22 574.066 59.888 572.226 63.108C570.478 66.328 569.604 70.1 569.604 74.424C569.604 78.748 570.57 82.52 572.502 85.74C574.434 88.96 577.056 91.628 580.368 93.744C583.772 95.86 587.544 97.47 591.684 98.574C595.824 99.586 600.102 100.092 604.518 100.092C609.762 100.092 614.362 99.402 618.318 98.022C622.274 96.55 625.724 94.848 628.668 92.916C631.612 90.984 634.234 89.236 636.534 87.672L649.23 108.51C646.47 110.718 642.698 113.064 637.914 115.548C633.222 118.032 627.886 120.148 621.906 121.896C615.926 123.552 609.624 124.38 603 124.38Z" fill="white"/>
<path d="M360.15 56.76C352.054 52.252 343.82 49.262 335.448 47.79V123H308.124V47.79C299.568 49.262 291.334 52.252 283.422 56.76L274.314 36.888C281.03 32.84 288.436 29.758 296.532 27.642C304.72 25.526 313.138 24.468 321.786 24.468C330.434 24.468 338.806 25.526 346.902 27.642C355.09 29.758 362.542 32.84 369.258 36.888L360.15 56.76Z" fill="#A4DB90"/>
</svg>