<svg width="250" height="250" viewBox="0 0 250 250" fill="none" xmlns="http://www.w3.org/2000/svg">
<path d="M224.562 81.5125C224.85 79.3375 225 77.1625 225 75C225 45.2625 198.212 21.4 168.488 25.4375C159.825 10.025 143.325 0 125 0C106.675 0 90.175 10.025 81.5125 25.4375C51.725 21.4 25 45.2625 25 75C25 77.1625 25.15 79.3375 25.4375 81.5125C10.025 90.1875 0 106.688 0 125C0 143.312 10.025 159.812 25.4375 168.488C25.1491 170.646 25.003 172.822 25 175C25 204.738 51.725 228.538 81.5125 224.562C90.175 239.975 106.675 250 125 250C143.325 250 159.825 239.975 168.488 224.562C198.212 228.538 225 204.738 225 175C225 172.837 224.85 170.663 224.562 168.488C239.975 159.812 250 143.312 250 125C250 106.688 239.975 90.1875 224.562 81.5125Z" fill="white"/>
<path d="M181.227 73.3593L180.509 65.8108L173.328 68.2072C161.021 72.4879 147.878 73.8016 134.968 72.0413C121.403 69.9338 107.518 71.8066 94.9929 77.4331C88.3531 80.2635 82.526 84.7115 78.0421 90.3723C73.5582 96.033 70.5598 102.727 69.3201 109.844C67.7125 119.038 68.5167 128.492 71.654 137.282C73.674 132.717 76.0345 128.312 78.7155 124.102C84.7968 115.145 93.2232 108.036 103.072 103.553C112.56 99.2167 122.93 97.1649 133.353 97.5625C123.431 99.0811 113.933 102.652 105.465 108.047C101.381 110.616 97.6406 113.696 94.3346 117.213C91.1729 120.728 88.3851 124.562 86.0164 128.655C81.5672 137.21 78.4014 146.375 76.621 155.854C74.7019 165.363 73.6602 175.029 73.5091 184.73H85.4778C86.0403 176.03 87.2202 167.381 89.0086 158.849C97.3114 163.338 106.623 165.627 116.058 165.499C124.858 165.493 133.567 163.721 141.671 160.287C187.212 140.817 181.227 76.0552 181.227 73.3593Z" fill="url(#paint0_linear_186_2300)"/>
<defs>
<linearGradient id="paint0_linear_186_2300" x1="125" y1="65.811" x2="125" y2="184.73" gradientUnits="userSpaceOnUse">
<stop stop-color="#328E6E"/>
<stop offset="1" stop-color="#AED4B3"/>
</linearGradient>
</defs>
</svg>