<svg width="764" height="250" viewBox="0 0 764 250" fill="none" xmlns="http://www.w3.org/2000/svg">
<rect width="764" height="250" rx="10" fill="#328E6E"/>
<path d="M180.755 100.647C180.916 99.429 181 98.211 181 97C181 80.347 165.999 66.984 149.353 69.245C144.502 60.614 135.262 55 125 55C114.738 55 105.498 60.614 100.647 69.245C83.966 66.984 69 80.347 69 97C69 98.211 69.084 99.429 69.245 100.647C60.614 105.505 55 114.745 55 125C55 135.255 60.614 144.495 69.245 149.353C69.0835 150.562 69.0017 151.78 69 153C69 169.653 83.966 182.981 100.647 180.755C105.498 189.386 114.738 195 125 195C135.262 195 144.502 189.386 149.353 180.755C165.999 182.981 181 169.653 181 153C181 151.789 180.916 150.571 180.755 149.353C189.386 144.495 195 135.255 195 125C195 114.745 189.386 105.505 180.755 100.647Z" fill="white"/>
<path d="M156.487 96.0817L156.085 91.8545L152.064 93.1964C145.171 95.5937 137.812 96.3293 130.582 95.3436C122.985 94.1634 115.21 95.2121 108.196 98.363C104.478 99.948 101.214 102.439 98.7034 105.609C96.1924 108.779 94.5134 112.527 93.8191 116.513C92.9189 121.662 93.3692 126.956 95.1261 131.878C96.2573 129.322 97.5792 126.855 99.0805 124.498C102.486 119.481 107.205 115.5 112.72 112.99C118.033 110.562 123.841 109.413 129.677 109.635C124.121 110.486 118.803 112.485 114.061 115.506C111.773 116.945 109.679 118.67 107.827 120.639C106.057 122.608 104.496 124.755 103.169 127.047C100.677 131.838 98.9046 136.97 97.9076 142.279C96.8329 147.604 96.2496 153.017 96.165 158.449H102.867C103.182 153.577 103.843 148.734 104.845 143.956C109.494 146.469 114.709 147.751 119.992 147.68C124.92 147.676 129.797 146.684 134.335 144.761C159.838 133.858 156.487 97.5914 156.487 96.0817Z" fill="#328E6E"/>
<path d="M271.088 179.38C262.44 179.38 254.39 178.184 246.938 175.792C239.486 173.4 232.954 169.996 227.342 165.58C221.73 161.164 217.36 155.874 214.232 149.71C211.104 143.546 209.54 136.692 209.54 129.148C209.54 121.696 211.104 114.888 214.232 108.724C217.452 102.56 221.822 97.27 227.342 92.854C232.862 88.438 239.302 85.034 246.662 82.642C254.114 80.158 262.118 78.916 270.674 78.916C276.838 78.916 282.726 79.56 288.338 80.848C293.95 82.136 299.194 83.884 304.07 86.092C308.946 88.208 313.132 90.646 316.628 93.406L301.31 114.658C299.102 112.818 296.48 111.07 293.444 109.414C290.408 107.666 286.912 106.286 282.956 105.274C279 104.17 274.4 103.618 269.156 103.618C265.292 103.618 261.52 104.17 257.84 105.274C254.16 106.286 250.756 107.896 247.628 110.104C244.592 112.22 242.154 114.888 240.314 118.108C238.566 121.328 237.692 125.1 237.692 129.424C237.692 133.748 238.658 137.52 240.59 140.74C242.522 143.96 245.144 146.628 248.456 148.744C251.86 150.86 255.632 152.47 259.772 153.574C263.912 154.586 268.19 155.092 272.606 155.092C277.85 155.092 282.45 154.402 286.406 153.022C290.362 151.55 293.812 149.848 296.756 147.916C299.7 145.984 302.322 144.236 304.622 142.672L317.318 163.51C314.558 165.718 310.786 168.064 306.002 170.548C301.31 173.032 295.974 175.148 289.994 176.896C284.014 178.552 277.712 179.38 271.088 179.38ZM445.394 178V81.4H471.2L537.44 145.708L533.162 144.328C532.61 140.464 532.15 136.922 531.782 133.702C531.506 130.482 531.276 127.492 531.092 124.732C530.908 121.972 530.77 119.35 530.678 116.866C530.586 114.382 530.494 111.898 530.402 109.414C530.402 106.93 530.402 104.354 530.402 101.686V81.4H556.76V178H530.678L460.85 109L468.992 111.346C469.268 112.542 469.544 113.922 469.82 115.486C470.096 116.958 470.326 118.706 470.51 120.73C470.786 122.662 471.016 124.962 471.2 127.63C471.384 130.298 471.522 133.426 471.614 137.014C471.706 140.602 471.752 144.696 471.752 149.296V178H445.394ZM658 179.38C649.352 179.38 641.302 178.184 633.85 175.792C626.398 173.4 619.866 169.996 614.254 165.58C608.642 161.164 604.272 155.874 601.144 149.71C598.016 143.546 596.452 136.692 596.452 129.148C596.452 121.696 598.016 114.888 601.144 108.724C604.364 102.56 608.734 97.27 614.254 92.854C619.774 88.438 626.214 85.034 633.574 82.642C641.026 80.158 649.03 78.916 657.586 78.916C663.75 78.916 669.638 79.56 675.25 80.848C680.862 82.136 686.106 83.884 690.982 86.092C695.858 88.208 700.044 90.646 703.54 93.406L688.222 114.658C686.014 112.818 683.392 111.07 680.356 109.414C677.32 107.666 673.824 106.286 669.868 105.274C665.912 104.17 661.312 103.618 656.068 103.618C652.204 103.618 648.432 104.17 644.752 105.274C641.072 106.286 637.668 107.896 634.54 110.104C631.504 112.22 629.066 114.888 627.226 118.108C625.478 121.328 624.604 125.1 624.604 129.424C624.604 133.748 625.57 137.52 627.502 140.74C629.434 143.96 632.056 146.628 635.368 148.744C638.772 150.86 642.544 152.47 646.684 153.574C650.824 154.586 655.102 155.092 659.518 155.092C664.762 155.092 669.362 154.402 673.318 153.022C677.274 151.55 680.724 149.848 683.668 147.916C686.612 145.984 689.234 144.236 691.534 142.672L704.23 163.51C701.47 165.718 697.698 168.064 692.914 170.548C688.222 173.032 682.886 175.148 676.906 176.896C670.926 178.552 664.624 179.38 658 179.38Z" fill="white"/>
<path d="M415.15 111.76C407.054 107.252 398.82 104.262 390.448 102.79V178H363.124V102.79C354.568 104.262 346.334 107.252 338.422 111.76L329.314 91.888C336.03 87.84 343.436 84.758 351.532 82.642C359.72 80.526 368.138 79.468 376.786 79.468C385.434 79.468 393.806 80.526 401.902 82.642C410.09 84.758 417.542 87.84 424.258 91.888L415.15 111.76Z" fill="#A4DB90"/>
</svg>